<?xml version="1.0" encoding="utf-8"?>
<!-- Generator: Adobe Illustrator 23.0.1, SVG Export Plug-In . SVG Version: 6.00 Build 0)  -->
<svg version="1.1" id="图层_1" xmlns="http://www.w3.org/2000/svg" xmlns:xlink="http://www.w3.org/1999/xlink" x="0px" y="0px"
	 viewBox="0 0 396.85 396.85" style="enable-background:new 0 0 396.85 396.85;" xml:space="preserve">
<style type="text/css">
	.st0{fill:#FFFFFF;}
</style>
<path class="st0" d="M327.7,121.98c-7.81,4.34-28.62,3.04-28.62,3.04c16.91-11.71,22.12-25.15,22.12-25.15
	c-13.76,7.23-27.77,9.53-32.98,10.18c-1.36,0.17-2.15,0.23-2.15,0.23s-24.29-20.38-51.18-13.88
	c-50.39,12.19-38.17,63.32-38.17,63.32c-71.99,1.73-112.33-55.95-112.33-55.95s-18.65,38.17,16.48,69.39c0,0-5.12,4.34-21.43-3.47
	c0,0-7.63,29.92,40.94,50.74c0,0-10.84,6.51-27.32,2.17c0,0,11.71,36.86,51.61,36.43c0,0-12.49,22.78-75.54,24.26
	c0.06,0.03,0.11,0.06,0.17,0.09c22.37,11.67,48.23,18.37,75.8,18.37c84.79,0,153.53-63.01,153.53-140.73
	c0-5.04-0.3-10.01-0.87-14.91C319.99,138.33,327.7,121.98,327.7,121.98z"/>
</svg>
